<?xml version="1.0" encoding="utf-8"?>
<?xml-stylesheet type="text/xsl" href="rss1.xsl"?>
<rss version="2.0" xmlns:atom="http://www.w3.org/2005/Atom" xmlns:content="http://purl.org/rss/1.0/modules/content/" xmlns:dc="http://purl.org/dc/elements/1.1/" xmlns:media="http://search.yahoo.com/mrss/">
<channel>
 <title>Getty</title>
 <link>http://www.gettyimg.com/</link>
 <atom:link href="http://www.gettyimg.com/" rel="self" type="application/rss+xml" />

 
                <item>
                <title><![CDATA[【UPSCALED】Bon Jovi - Legendary (2024) [4K AI Upscale| HEVC 10-bit | PCM 24-bit 96 kHz]]]></title>
                <link><![CDATA[https://sharemania.us/threads/bon-jovi-legendary-2024-4k-ai-upscale-hevc-10-bit-pcm-24-bit-96-khz.240556/]]></link>
                <description><![CDATA[<article>
<blockquote class="messageText SelectQuoteContainer ugc baseHtml">
<b><img src="https://images2.imgbox.com/db/0a/mUsad9A2_o.jpg" class="bbCodeImage LbImage" alt="[​IMG]" data-url="https://images2.imgbox.com/db/0a/mUsad9A2_o.jpg" style=""> <br>
<br>
Genre:<span style="color: #0059b3"> Rock</span><br>
Style: <span style="color: #0059b3">Pop Rock, Country Rock</span><br>
Year: <span style="color: #0059b3">2024</span><br>
Video Source: <span style="color: #0059b3">Apple Music, thanks SonMaxime</span><br>
Audio Source: <span style="color: #0059b3">Qobuz Hi-Res, 24-bit 96 kHz</span></b><br>
<br>
"<b>Legendary</b>" is a song by American rock band Bon Jovi, released as the lead single from their upcoming album <i>Forever</i>, out June 7th via Island Records. Forever will be Bon Jovi's first new album in four years. Before they could record it, frontman Jon Bon Jovi had to overcome serious vocal issues that ultimately resulted in him having rare surgery.<br>
The single was released on March 14, 2024 and is a tribute to Bon Jovi's wife. He co-wrote the song with longtime collaborators Billy Falcon and John Shanks. <i>"The brown-eyed girl, which of course is a Van Morrison nod, but not in this instance. It’s my wife,"</i> Bon Jovi explains. <i>"She has been there faithfully throughout this process: 'And the brown-eyed girl/ She believes in me / Legendary.' There it is. That’s who and what I am at 62 years old."</i><br>
<br>
Bon Jovi are celebrating their 40th anniversary as a band this year. In addition to the new album, a career-spanning Hulu docuseries, <i>Thank You, Goodnight: The Bon Jovi Story</i>, is set to premiere on April 26th. The four-part docuseries will chronicle all four decades of the band and its frontman Jon Bon Jovi, offering unprecedented access including “personal videos, unreleased early demos, original lyrics, and never-before-seen photos.” The series was produced by ROS, the banner of filmmaker Gotham Chopra (<i>Kobe Bryant’s Muse</i>, <i>Man in the Arena</i>, <i>Tom vs. Time</i>), and edited and co-produced by Alex Trudeau Viriato.<br>
<br>
<b>Release Info</b><br>
The video track is upscaled from 1080p to 4K with Topaz Video AI and encoded to HEVC 10-bit.<br>
The PCM track is lossless (Qobuz Hi-Res, 24-bit 96 kHz), synced with Adobe Audition.<br>
The timed lyrics are synced and edited. Enable the subtitles to see the lyrics.<br>
<br>
<b>Note:</b> I've also added the FLAC track to the download folder (Qobuz Hi-Res, 24-bit 96 kHz).<br>
<br>
<div class="ToggleTriggerAnchor bbCodeSpoilerContainer">
<button type="button" class="button bbCodeSpoilerButton ToggleTrigger Tooltip JsOnly" data-target="> .SpoilerTarget"><span>Spoiler: <span class="SpoilerTitle">Media Info</span></span></button>
<div class="SpoilerTarget bbCodeSpoilerText">
<div class="bbCodeBlock bbCodeCode">
<div class="type">Code:</div>
<pre>General
Unique ID                      : 150300551919446006724683491277716687071 (0x7112D55714097CBFEA125D55D3F188DF)
Complete name                  : Bon Jovi - Legendary.mkv
Format                         : Matroska
Format version                 : Version 4 / Version 2
File size                      : 697 MiB
Duration                       : 4 min 3 s
Overall bit rate               : 24.0 Mb/s
Frame rate                     : 23.976 FPS
Encoded date                   : 2024-03-22 21:49:46 UTC
Writing application            : mkvmerge v83.0 ('Circle Of Friends') 64-bit
Writing library                : libebml v1.4.5 + libmatroska v1.7.1

Video
ID                             : 1
Format                         : HEVC
Format/Info                    : High Efficiency Video Coding
Format profile                 : Main 10@L5@Main
Codec ID                       : V_MPEGH/ISO/HEVC
Duration                       : 4 min 3 s
Bit rate                       : 19.1 Mb/s
Width                          : 3 840 pixels
Height                         : 2 160 pixels
Display aspect ratio           : 16:9
Frame rate mode                : Constant
Frame rate                     : 23.976 (24000/1001) FPS
Color space                    : YUV
Chroma subsampling             : 4:2:0
Bit depth                      : 10 bits
Bits/(Pixel*Frame)             : 0.096
Stream size                    : 554 MiB (80%)
Language                       : English
Default                        : Yes
Forced                         : No
Color range                    : Limited
Color primaries                : BT.709
Transfer characteristics       : BT.709
Matrix coefficients            : BT.709

Audio #1
ID                             : 2
Format                         : PCM
Format settings                : Little / Signed
Codec ID                       : A_PCM/INT/LIT
Duration                       : 4 min 3 s
Bit rate mode                  : Constant
Bit rate                       : 4 608 kb/s
Channel(s)                     : 2 channels
Sampling rate                  : 96.0 kHz
Frame rate                     : 25.000 FPS (3840 SPF)
Bit depth                      : 24 bits
Stream size                    : 134 MiB (19%)
Title                          : Lossless 24-bit 96 kHz
Language                       : English
Default                        : Yes
Forced                         : No

Audio #2
ID                             : 3
Format                         : AAC LC
Format/Info                    : Advanced Audio Codec Low Complexity
Codec ID                       : A_AAC-2
Duration                       : 4 min 3 s
Bit rate                       : 288 kb/s
Channel(s)                     : 2 channels
Channel layout                 : L R
Sampling rate                  : 48.0 kHz
Frame rate                     : 46.875 FPS (1024 SPF)
Compression mode               : Lossy
Stream size                    : 8.32 MiB (1%)
Language                       : English
Default                        : No
Forced                         : No

Text
ID                             : 4
Format                         : UTF-8
Codec ID                       : S_TEXT/UTF8
Codec ID/Info                  : UTF-8 Plain Text
Duration                       : 3 min 17 s
Bit rate                       : 56 b/s
Frame rate                     : 0.202 FPS
Count of elements              : 40
Stream size                    : 1.37 KiB (0%)
Title                          : Lyrics
Language                       : English
Default                        : No
Forced                         : No
</pre>
</div></div>
</div><br>
<b>Note to the peeps @ RuTracker: Give credit if you post the work of someone else!</b><br>
- Hurby4 aka ADHDerby<br>
<br>
<div class="bbCodeBlock bbCodeVfcHH HiddenContent">
<div class="attribution type">Hidden Content:</div>
<blockquote>You must reply before you can see the hidden data contained here.</blockquote>
</div>
<div class="messageTextEndMarker">&nbsp;</div>
</blockquote>
</article>]]></description>
                <author><![CDATA[ADHDerby]]></author>
                </item>

                </channel></rss>